<svg x="0" y="0" width="48" height="48" version="1.1" xmlns="http://www.w3.org/2000/svg" xmlns:xlink="http://www.w3.org/1999/xlink"><defs><linearGradient x1="11.10349" y1="11.10349" x2="53.11869" y2="53.11869" gradientUnits="userSpaceOnUse" id="color-1"><stop offset="0.13" stop-color="#000000"></stop><stop offset="1" stop-color="#000000" stop-opacity="0"></stop></linearGradient><filter id="dropshadow"><feColorMatrix type="matrix" values="0 0 0 0 .05  0 0 0 0 .15  0 0 0 0 .1  0 0 0 .8 0"></feColorMatrix> <feOffset dx="0" dy="1"></feOffset> <feGaussianBlur stdDeviation="1"></feGaussianBlur> <feComposite in="SourceGraphic"></feComposite></filter></defs><g fill="none" stroke="none" stroke-width="none" stroke-linecap="butt" stroke-linejoin="miter" stroke-miterlimit="none" stroke-dasharray="" stroke-dashoffset="0" font-family="none" font-weight="normal" font-size="none" text-anchor="start" mix-blend-mode="normal"><g fill="#000000" stroke="none" stroke-width="1" stroke-miterlimit="4" font-family="&quot;Open Sans&quot;, sans-serif" font-size="14"></g><g fill="#000000" stroke="none" stroke-width="1" stroke-miterlimit="4" font-family="&quot;Open Sans&quot;, sans-serif" font-size="14"></g><path d="M5,45c-1.10457,0 -2,-0.89543 -2,-2l0,-38c0,-1.10457 0.89543,-2 2,-2l38,0c1.10457,0 2,0.89543 2,2l0,38c0,1.10457 -0.89543,2 -2,2z" fill="#512da8" stroke-width="1" stroke-miterlimit="10" font-family="sans-serif" font-size="12" filter="url(#dropshadow)"></path><path d="M20.88533,45l-8.94266,-8.94266c-0.51855,-0.51855 -0.83917,-1.23502 -0.83917,-2.02672l2.86589,2.86589l0.00001,0l-2.86589,-2.86589l0,-20.06123c0,-1.58341 1.28248,-2.86589 2.86589,-2.86589l5.73178,5.73178l0,-0.00001l-5.73178,-5.73178l20.06123,0c0.7917,0 1.50817,0.32062 2.02672,0.83917l8.94266,8.94266l0,22.11467c0,1.10457 -0.89543,2 -2,2z" fill="url(#color-1)" stroke-width="1" stroke-miterlimit="10" font-family="sans-serif" font-size="12"></path><path d="M36.8965,13.96939l0,20.06123c0,1.5834 -1.28249,2.86589 -2.86589,2.86589l-20.06123,0c-1.5834,0 -2.86589,-1.28249 -2.86589,-2.86589l0,-20.06123c0,-1.5834 1.28249,-2.86589 2.86589,-2.86589l20.06123,0c1.5834,0 2.86589,1.28249 2.86589,2.86589z M28.29883,16.83528l-8.59767,0l0,8.59767l5.73178,0l0,2.86589l-5.73178,0l0,2.86589l5.73178,0c1.5834,0 2.86589,-1.28249 2.86589,-2.86589l0,-2.86589c0,-1.5834 -1.28249,-2.86589 -2.86589,-2.86589l-2.86589,0l0,-2.86589l5.73178,0z" fill="#ffffff" stroke="none" stroke-width="0" stroke-miterlimit="4" font-family="&quot;Open Sans&quot;, sans-serif" font-size="14"></path></g></svg>